<?xml version="1.0" encoding="UTF-8" standalone="no"?>
<!DOCTYPE svg PUBLIC "-//W3C//DTD SVG 1.1//EN"
 "http://www.w3.org/Graphics/SVG/1.1/DTD/svg11.dtd">
<!-- Generated by graphviz version 5.0.0 (20220707.1540)
 -->
<!-- Title: dependencies Pages: 1 -->
<svg width="4854pt" height="247pt"
 viewBox="0.00 0.00 4854.00 246.80" xmlns="http://www.w3.org/2000/svg" xmlns:xlink="http://www.w3.org/1999/xlink">
<g id="graph0" class="graph" transform="scale(1 1) rotate(0) translate(4 242.8)">
<title>dependencies</title>
<polygon fill="white" stroke="transparent" points="-4,4 -4,-242.8 4850,-242.8 4850,4 -4,4"/>
<text text-anchor="middle" x="2423" y="-8.2" font-family="sans-serif" font-size="14.00">dependencies</text>
<g id="clust1" class="cluster">
<title>cluster_AdminModule</title>
<polygon fill="none" stroke="black" stroke-dasharray="1,5" points="8,-32.8 8,-157.8 797,-157.8 797,-32.8 8,-32.8"/>
</g>
<g id="clust2" class="cluster">
<title>cluster_AdminModule_declarations</title>
<polygon fill="none" stroke="black" points="184,-40.8 184,-92.8 789,-92.8 789,-40.8 184,-40.8"/>
</g>
<g id="clust7" class="cluster">
<title>cluster_AdminModule_imports</title>
<polygon fill="none" stroke="black" points="16,-40.8 16,-92.8 176,-92.8 176,-40.8 16,-40.8"/>
</g>
<g id="clust17" class="cluster">
<title>cluster_AppModule</title>
<polygon fill="none" stroke="black" stroke-dasharray="1,5" points="805,-32.8 805,-230.8 2902,-230.8 2902,-32.8 805,-32.8"/>
</g>
<g id="clust18" class="cluster">
<title>cluster_AppModule_declarations</title>
<polygon fill="none" stroke="black" points="965,-40.8 965,-92.8 2894,-92.8 2894,-40.8 965,-40.8"/>
</g>
<g id="clust30" class="cluster">
<title>cluster_AppModule_imports</title>
<polygon fill="none" stroke="black" points="813,-40.8 813,-92.8 957,-92.8 957,-40.8 813,-40.8"/>
</g>
<g id="clust32" class="cluster">
<title>cluster_AppModule_bootstrap</title>
<polygon fill="none" stroke="black" points="1876,-170.8 1876,-222.8 2000,-222.8 2000,-170.8 1876,-170.8"/>
</g>
<g id="clust40" class="cluster">
<title>cluster_AuthModule</title>
<polygon fill="none" stroke="black" stroke-dasharray="1,5" points="2910,-32.8 2910,-157.8 3352,-157.8 3352,-32.8 2910,-32.8"/>
</g>
<g id="clust41" class="cluster">
<title>cluster_AuthModule_declarations</title>
<polygon fill="none" stroke="black" points="3074,-40.8 3074,-92.8 3344,-92.8 3344,-40.8 3074,-40.8"/>
</g>
<g id="clust44" class="cluster">
<title>cluster_AuthModule_imports</title>
<polygon fill="none" stroke="black" points="2918,-40.8 2918,-92.8 3066,-92.8 3066,-40.8 2918,-40.8"/>
</g>
<g id="clust54" class="cluster">
<title>cluster_FormationModule</title>
<polygon fill="none" stroke="black" stroke-dasharray="1,5" points="3360,-32.8 3360,-157.8 4106,-157.8 4106,-32.8 3360,-32.8"/>
</g>
<g id="clust55" class="cluster">
<title>cluster_FormationModule_declarations</title>
<polygon fill="none" stroke="black" points="3556,-40.8 3556,-92.8 4098,-92.8 4098,-40.8 3556,-40.8"/>
</g>
<g id="clust60" class="cluster">
<title>cluster_FormationModule_imports</title>
<polygon fill="none" stroke="black" points="3368,-40.8 3368,-92.8 3548,-92.8 3548,-40.8 3368,-40.8"/>
</g>
<g id="clust70" class="cluster">
<title>cluster_UserModule</title>
<polygon fill="none" stroke="black" stroke-dasharray="1,5" points="4114,-32.8 4114,-157.8 4838,-157.8 4838,-32.8 4114,-32.8"/>
</g>
<g id="clust71" class="cluster">
<title>cluster_UserModule_declarations</title>
<polygon fill="none" stroke="black" points="4278,-40.8 4278,-92.8 4830,-92.8 4830,-40.8 4278,-40.8"/>
</g>
<g id="clust76" class="cluster">
<title>cluster_UserModule_imports</title>
<polygon fill="none" stroke="black" points="4122,-40.8 4122,-92.8 4270,-92.8 4270,-40.8 4122,-40.8"/>
</g>
<!-- AheaderComponent -->
<g id="node1" class="node">
<title>AheaderComponent</title>
<polygon fill="#ffffb3" stroke="black" points="781.25,-84.8 652.75,-84.8 652.75,-48.8 781.25,-48.8 781.25,-84.8"/>
<text text-anchor="middle" x="717" y="-62.6" font-family="Times,serif" font-size="14.00">AheaderComponent</text>
</g>
<!-- AdminModule -->
<g id="node5" class="node">
<title>AdminModule</title>
<polygon fill="#8dd3c7" stroke="black" points="468.44,-149.8 465.44,-153.8 444.44,-153.8 441.44,-149.8 369.56,-149.8 369.56,-113.8 468.44,-113.8 468.44,-149.8"/>
<text text-anchor="middle" x="419" y="-127.6" font-family="Times,serif" font-size="14.00">AdminModule</text>
</g>
<!-- AheaderComponent&#45;&gt;AdminModule -->
<g id="edge1" class="edge">
<title>AheaderComponent&#45;&gt;AdminModule</title>
<path fill="none" stroke="black" d="M717,-85.12C717,-108.46 717,-145.8 717,-145.8 717,-145.8 478.54,-145.8 478.54,-145.8"/>
<polygon fill="black" stroke="black" points="478.54,-142.3 468.54,-145.8 478.54,-149.3 478.54,-142.3"/>
</g>
<!-- AlayoutComponent -->
<g id="node2" class="node">
<title>AlayoutComponent</title>
<polygon fill="#ffffb3" stroke="black" points="634.44,-84.8 507.56,-84.8 507.56,-48.8 634.44,-48.8 634.44,-84.8"/>
<text text-anchor="middle" x="571" y="-62.6" font-family="Times,serif" font-size="14.00">AlayoutComponent</text>
</g>
<!-- AlayoutComponent&#45;&gt;AdminModule -->
<g id="edge2" class="edge">
<title>AlayoutComponent&#45;&gt;AdminModule</title>
<path fill="none" stroke="black" d="M571,-85.09C571,-107.01 571,-140.8 571,-140.8 571,-140.8 478.35,-140.8 478.35,-140.8"/>
<polygon fill="black" stroke="black" points="478.35,-137.3 468.35,-140.8 478.35,-144.3 478.35,-137.3"/>
</g>
<!-- DashboardComponent -->
<g id="node3" class="node">
<title>DashboardComponent</title>
<polygon fill="#ffffb3" stroke="black" points="489.98,-84.8 348.02,-84.8 348.02,-48.8 489.98,-48.8 489.98,-84.8"/>
<text text-anchor="middle" x="419" y="-62.6" font-family="Times,serif" font-size="14.00">DashboardComponent</text>
</g>
<!-- DashboardComponent&#45;&gt;AdminModule -->
<g id="edge3" class="edge">
<title>DashboardComponent&#45;&gt;AdminModule</title>
<path fill="none" stroke="black" d="M419,-84.91C419,-84.91 419,-103.79 419,-103.79"/>
<polygon fill="black" stroke="black" points="415.5,-103.79 419,-113.79 422.5,-103.79 415.5,-103.79"/>
</g>
<!-- SidemenuComponent -->
<g id="node4" class="node">
<title>SidemenuComponent</title>
<polygon fill="#ffffb3" stroke="black" points="329.82,-84.8 192.18,-84.8 192.18,-48.8 329.82,-48.8 329.82,-84.8"/>
<text text-anchor="middle" x="261" y="-62.6" font-family="Times,serif" font-size="14.00">SidemenuComponent</text>
</g>
<!-- SidemenuComponent&#45;&gt;AdminModule -->
<g id="edge4" class="edge">
<title>SidemenuComponent&#45;&gt;AdminModule</title>
<path fill="none" stroke="black" d="M261,-84.82C261,-102.17 261,-125.8 261,-125.8 261,-125.8 359.44,-125.8 359.44,-125.8"/>
<polygon fill="black" stroke="black" points="359.44,-129.3 369.44,-125.8 359.44,-122.3 359.44,-129.3"/>
</g>
<!-- AdminRoutingModule -->
<g id="node6" class="node">
<title>AdminRoutingModule</title>
<polygon fill="#8dd3c7" stroke="black" points="167.56,-84.8 164.56,-88.8 143.56,-88.8 140.56,-84.8 24.44,-84.8 24.44,-48.8 167.56,-48.8 167.56,-84.8"/>
<text text-anchor="middle" x="96" y="-62.6" font-family="Times,serif" font-size="14.00">AdminRoutingModule</text>
</g>
<!-- AdminRoutingModule&#45;&gt;AdminModule -->
<g id="edge5" class="edge">
<title>AdminRoutingModule&#45;&gt;AdminModule</title>
<path fill="none" stroke="black" d="M96,-85.08C96,-106.12 96,-137.8 96,-137.8 96,-137.8 359.59,-137.8 359.59,-137.8"/>
<polygon fill="black" stroke="black" points="359.59,-141.3 369.59,-137.8 359.59,-134.3 359.59,-141.3"/>
</g>
<!-- AppComponent -->
<g id="node7" class="node">
<title>AppComponent</title>
<polygon fill="#ffffb3" stroke="black" points="2885.94,-84.8 2780.06,-84.8 2780.06,-48.8 2885.94,-48.8 2885.94,-84.8"/>
<text text-anchor="middle" x="2833" y="-62.6" font-family="Times,serif" font-size="14.00">AppComponent</text>
</g>
<!-- AppModule -->
<g id="node18" class="node">
<title>AppModule</title>
<polygon fill="#8dd3c7" stroke="black" points="1979.66,-149.8 1976.66,-153.8 1955.66,-153.8 1952.66,-149.8 1896.34,-149.8 1896.34,-113.8 1979.66,-113.8 1979.66,-149.8"/>
<text text-anchor="middle" x="1938" y="-127.6" font-family="Times,serif" font-size="14.00">AppModule</text>
</g>
<!-- AppComponent&#45;&gt;AppModule -->
<g id="edge6" class="edge">
<title>AppComponent&#45;&gt;AppModule</title>
<path fill="none" stroke="black" d="M2833,-84.84C2833,-106.46 2833,-139.8 2833,-139.8 2833,-139.8 1989.67,-139.8 1989.67,-139.8"/>
<polygon fill="black" stroke="black" points="1989.67,-136.3 1979.67,-139.8 1989.67,-143.3 1989.67,-136.3"/>
</g>
<!-- AproposComponent -->
<g id="node8" class="node">
<title>AproposComponent</title>
<polygon fill="#ffffb3" stroke="black" points="2762.55,-84.8 2633.45,-84.8 2633.45,-48.8 2762.55,-48.8 2762.55,-84.8"/>
<text text-anchor="middle" x="2698" y="-62.6" font-family="Times,serif" font-size="14.00">AproposComponent</text>
</g>
<!-- AproposComponent&#45;&gt;AppModule -->
<g id="edge7" class="edge">
<title>AproposComponent&#45;&gt;AppModule</title>
<path fill="none" stroke="black" d="M2698,-85.02C2698,-105.17 2698,-134.8 2698,-134.8 2698,-134.8 1989.67,-134.8 1989.67,-134.8"/>
<polygon fill="black" stroke="black" points="1989.67,-131.3 1979.67,-134.8 1989.67,-138.3 1989.67,-131.3"/>
</g>
<!-- CertificationsComponent -->
<g id="node9" class="node">
<title>CertificationsComponent</title>
<polygon fill="#ffffb3" stroke="black" points="2614.53,-84.8 2457.47,-84.8 2457.47,-48.8 2614.53,-48.8 2614.53,-84.8"/>
<text text-anchor="middle" x="2536" y="-62.6" font-family="Times,serif" font-size="14.00">CertificationsComponent</text>
</g>
<!-- CertificationsComponent&#45;&gt;AppModule -->
<g id="edge8" class="edge">
<title>CertificationsComponent&#45;&gt;AppModule</title>
<path fill="none" stroke="black" d="M2536,-85.02C2536,-103.63 2536,-129.8 2536,-129.8 2536,-129.8 1990.05,-129.8 1990.05,-129.8"/>
<polygon fill="black" stroke="black" points="1990.05,-126.3 1980.05,-129.8 1990.05,-133.3 1990.05,-126.3"/>
</g>
<!-- ContactPublicComponent -->
<g id="node10" class="node">
<title>ContactPublicComponent</title>
<polygon fill="#ffffb3" stroke="black" points="2439.16,-84.8 2278.84,-84.8 2278.84,-48.8 2439.16,-48.8 2439.16,-84.8"/>
<text text-anchor="middle" x="2359" y="-62.6" font-family="Times,serif" font-size="14.00">ContactPublicComponent</text>
</g>
<!-- ContactPublicComponent&#45;&gt;AppModule -->
<g id="edge9" class="edge">
<title>ContactPublicComponent&#45;&gt;AppModule</title>
<path fill="none" stroke="black" d="M2359,-84.83C2359,-101.86 2359,-124.8 2359,-124.8 2359,-124.8 1989.91,-124.8 1989.91,-124.8"/>
<polygon fill="black" stroke="black" points="1989.91,-121.3 1979.91,-124.8 1989.91,-128.3 1989.91,-121.3"/>
</g>
<!-- CreateStagiaireComponent -->
<g id="node11" class="node">
<title>CreateStagiaireComponent</title>
<polygon fill="#ffffb3" stroke="black" points="2260.62,-84.8 2093.38,-84.8 2093.38,-48.8 2260.62,-48.8 2260.62,-84.8"/>
<text text-anchor="middle" x="2177" y="-62.6" font-family="Times,serif" font-size="14.00">CreateStagiaireComponent</text>
</g>
<!-- CreateStagiaireComponent&#45;&gt;AppModule -->
<g id="edge10" class="edge">
<title>CreateStagiaireComponent&#45;&gt;AppModule</title>
<path fill="none" stroke="black" d="M2177,-85.04C2177,-100.37 2177,-119.8 2177,-119.8 2177,-119.8 1989.9,-119.8 1989.9,-119.8"/>
<polygon fill="black" stroke="black" points="1989.9,-116.3 1979.9,-119.8 1989.9,-123.3 1989.9,-116.3"/>
</g>
<!-- ErrorComponent -->
<g id="node12" class="node">
<title>ErrorComponent</title>
<polygon fill="#ffffb3" stroke="black" points="2075.37,-84.8 1964.63,-84.8 1964.63,-48.8 2075.37,-48.8 2075.37,-84.8"/>
<text text-anchor="middle" x="2020" y="-62.6" font-family="Times,serif" font-size="14.00">ErrorComponent</text>
</g>
<!-- ErrorComponent&#45;&gt;AppModule -->
<g id="edge11" class="edge">
<title>ErrorComponent&#45;&gt;AppModule</title>
<path fill="none" stroke="black" d="M1972.2,-84.91C1972.2,-84.91 1972.2,-103.79 1972.2,-103.79"/>
<polygon fill="black" stroke="black" points="1968.7,-103.79 1972.2,-113.79 1975.7,-103.79 1968.7,-103.79"/>
</g>
<!-- FormationDetailsComponent -->
<g id="node13" class="node">
<title>FormationDetailsComponent</title>
<polygon fill="#ffffb3" stroke="black" points="1946.82,-84.8 1767.18,-84.8 1767.18,-48.8 1946.82,-48.8 1946.82,-84.8"/>
<text text-anchor="middle" x="1857" y="-62.6" font-family="Times,serif" font-size="14.00">FormationDetailsComponent</text>
</g>
<!-- FormationDetailsComponent&#45;&gt;AppModule -->
<g id="edge12" class="edge">
<title>FormationDetailsComponent&#45;&gt;AppModule</title>
<path fill="none" stroke="black" d="M1921.41,-84.91C1921.41,-84.91 1921.41,-103.79 1921.41,-103.79"/>
<polygon fill="black" stroke="black" points="1917.91,-103.79 1921.41,-113.79 1924.91,-103.79 1917.91,-103.79"/>
</g>
<!-- FormationListComponent -->
<g id="node14" class="node">
<title>FormationListComponent</title>
<polygon fill="#ffffb3" stroke="black" points="1749.94,-84.8 1588.06,-84.8 1588.06,-48.8 1749.94,-48.8 1749.94,-84.8"/>
<text text-anchor="middle" x="1669" y="-62.6" font-family="Times,serif" font-size="14.00">FormationListComponent</text>
</g>
<!-- FormationListComponent&#45;&gt;AppModule -->
<g id="edge13" class="edge">
<title>FormationListComponent&#45;&gt;AppModule</title>
<path fill="none" stroke="black" d="M1669,-84.99C1669,-99.98 1669,-118.8 1669,-118.8 1669,-118.8 1886.26,-118.8 1886.26,-118.8"/>
<polygon fill="black" stroke="black" points="1886.26,-122.3 1896.26,-118.8 1886.26,-115.3 1886.26,-122.3"/>
</g>
<!-- FormationsComponent -->
<g id="node15" class="node">
<title>FormationsComponent</title>
<polygon fill="#ffffb3" stroke="black" points="1570.61,-84.8 1425.39,-84.8 1425.39,-48.8 1570.61,-48.8 1570.61,-84.8"/>
<text text-anchor="middle" x="1498" y="-62.6" font-family="Times,serif" font-size="14.00">FormationsComponent</text>
</g>
<!-- FormationsComponent&#45;&gt;AppModule -->
<g id="edge14" class="edge">
<title>FormationsComponent&#45;&gt;AppModule</title>
<path fill="none" stroke="black" d="M1498,-84.83C1498,-101.2 1498,-122.8 1498,-122.8 1498,-122.8 1886.21,-122.8 1886.21,-122.8"/>
<polygon fill="black" stroke="black" points="1886.21,-126.3 1896.21,-122.8 1886.21,-119.3 1886.21,-126.3"/>
</g>
<!-- InfosPratiquesComponent -->
<g id="node16" class="node">
<title>InfosPratiquesComponent</title>
<polygon fill="#ffffb3" stroke="black" points="1407.21,-84.8 1244.79,-84.8 1244.79,-48.8 1407.21,-48.8 1407.21,-84.8"/>
<text text-anchor="middle" x="1326" y="-62.6" font-family="Times,serif" font-size="14.00">InfosPratiquesComponent</text>
</g>
<!-- InfosPratiquesComponent&#45;&gt;AppModule -->
<g id="edge15" class="edge">
<title>InfosPratiquesComponent&#45;&gt;AppModule</title>
<path fill="none" stroke="black" d="M1326,-85.1C1326,-103.07 1326,-127.8 1326,-127.8 1326,-127.8 1885.93,-127.8 1885.93,-127.8"/>
<polygon fill="black" stroke="black" points="1885.93,-131.3 1895.93,-127.8 1885.93,-124.3 1885.93,-131.3"/>
</g>
<!-- InfrastructuresEtCybersecuriteComponent -->
<g id="node17" class="node">
<title>InfrastructuresEtCybersecuriteComponent</title>
<polygon fill="#ffffb3" stroke="black" points="1226.65,-84.8 973.35,-84.8 973.35,-48.8 1226.65,-48.8 1226.65,-84.8"/>
<text text-anchor="middle" x="1100" y="-62.6" font-family="Times,serif" font-size="14.00">InfrastructuresEtCybersecuriteComponent</text>
</g>
<!-- InfrastructuresEtCybersecuriteComponent&#45;&gt;AppModule -->
<g id="edge16" class="edge">
<title>InfrastructuresEtCybersecuriteComponent&#45;&gt;AppModule</title>
<path fill="none" stroke="black" d="M1100,-84.91C1100,-104.14 1100,-131.8 1100,-131.8 1100,-131.8 1886.16,-131.8 1886.16,-131.8"/>
<polygon fill="black" stroke="black" points="1886.16,-135.3 1896.16,-131.8 1886.16,-128.3 1886.16,-135.3"/>
</g>
<!-- AppComponent  -->
<g id="node20" class="node">
<title>AppComponent </title>
<polygon fill="#80b1d3" stroke="black" points="1992.44,-214.8 1883.56,-214.8 1883.56,-178.8 1992.44,-178.8 1992.44,-214.8"/>
<text text-anchor="middle" x="1938" y="-192.6" font-family="Times,serif" font-size="14.00">AppComponent </text>
</g>
<!-- AppModule&#45;&gt;AppComponent  -->
<g id="edge18" class="edge">
<title>AppModule&#45;&gt;AppComponent </title>
<path fill="none" stroke="black" stroke-dasharray="1,5" d="M1938,-149.91C1938,-149.91 1938,-168.79 1938,-168.79"/>
<polygon fill="black" stroke="black" points="1934.5,-168.79 1938,-178.79 1941.5,-168.79 1934.5,-168.79"/>
</g>
<!-- AppRoutingModule -->
<g id="node19" class="node">
<title>AppRoutingModule</title>
<polygon fill="#8dd3c7" stroke="black" points="949.28,-84.8 946.28,-88.8 925.28,-88.8 922.28,-84.8 820.72,-84.8 820.72,-48.8 949.28,-48.8 949.28,-84.8"/>
<text text-anchor="middle" x="885" y="-62.6" font-family="Times,serif" font-size="14.00">AppRoutingModule</text>
</g>
<!-- AppRoutingModule&#45;&gt;AppModule -->
<g id="edge17" class="edge">
<title>AppRoutingModule&#45;&gt;AppModule</title>
<path fill="none" stroke="black" d="M885,-84.83C885,-105.57 885,-136.8 885,-136.8 885,-136.8 1886.07,-136.8 1886.07,-136.8"/>
<polygon fill="black" stroke="black" points="1886.07,-140.3 1896.07,-136.8 1886.07,-133.3 1886.07,-140.3"/>
</g>
<!-- LoginComponent -->
<g id="node21" class="node">
<title>LoginComponent</title>
<polygon fill="#ffffb3" stroke="black" points="3336.27,-84.8 3221.73,-84.8 3221.73,-48.8 3336.27,-48.8 3336.27,-84.8"/>
<text text-anchor="middle" x="3279" y="-62.6" font-family="Times,serif" font-size="14.00">LoginComponent</text>
</g>
<!-- AuthModule -->
<g id="node23" class="node">
<title>AuthModule</title>
<polygon fill="#8dd3c7" stroke="black" points="3186.55,-149.8 3183.55,-153.8 3162.55,-153.8 3159.55,-149.8 3099.45,-149.8 3099.45,-113.8 3186.55,-113.8 3186.55,-149.8"/>
<text text-anchor="middle" x="3143" y="-127.6" font-family="Times,serif" font-size="14.00">AuthModule</text>
</g>
<!-- LoginComponent&#45;&gt;AuthModule -->
<g id="edge19" class="edge">
<title>LoginComponent&#45;&gt;AuthModule</title>
<path fill="none" stroke="black" d="M3279,-84.83C3279,-101.2 3279,-122.8 3279,-122.8 3279,-122.8 3196.78,-122.8 3196.78,-122.8"/>
<polygon fill="black" stroke="black" points="3196.78,-119.3 3186.78,-122.8 3196.78,-126.3 3196.78,-119.3"/>
</g>
<!-- LogoutComponent -->
<g id="node22" class="node">
<title>LogoutComponent</title>
<polygon fill="#ffffb3" stroke="black" points="3203.77,-84.8 3082.23,-84.8 3082.23,-48.8 3203.77,-48.8 3203.77,-84.8"/>
<text text-anchor="middle" x="3143" y="-62.6" font-family="Times,serif" font-size="14.00">LogoutComponent</text>
</g>
<!-- LogoutComponent&#45;&gt;AuthModule -->
<g id="edge20" class="edge">
<title>LogoutComponent&#45;&gt;AuthModule</title>
<path fill="none" stroke="black" d="M3143,-84.91C3143,-84.91 3143,-103.79 3143,-103.79"/>
<polygon fill="black" stroke="black" points="3139.5,-103.79 3143,-113.79 3146.5,-103.79 3139.5,-103.79"/>
</g>
<!-- AuthRoutingModule -->
<g id="node24" class="node">
<title>AuthRoutingModule</title>
<polygon fill="#8dd3c7" stroke="black" points="3058.17,-84.8 3055.17,-88.8 3034.17,-88.8 3031.17,-84.8 2925.83,-84.8 2925.83,-48.8 3058.17,-48.8 3058.17,-84.8"/>
<text text-anchor="middle" x="2992" y="-62.6" font-family="Times,serif" font-size="14.00">AuthRoutingModule</text>
</g>
<!-- AuthRoutingModule&#45;&gt;AuthModule -->
<g id="edge21" class="edge">
<title>AuthRoutingModule&#45;&gt;AuthModule</title>
<path fill="none" stroke="black" d="M2992,-84.89C2992,-107.93 2992,-144.8 2992,-144.8 2992,-144.8 3089.32,-144.8 3089.32,-144.8"/>
<polygon fill="black" stroke="black" points="3089.32,-148.3 3099.32,-144.8 3089.32,-141.3 3089.32,-148.3"/>
</g>
<!-- FAddComponent -->
<g id="node25" class="node">
<title>FAddComponent</title>
<polygon fill="#ffffb3" stroke="black" points="4089.73,-84.8 3976.27,-84.8 3976.27,-48.8 4089.73,-48.8 4089.73,-84.8"/>
<text text-anchor="middle" x="4033" y="-62.6" font-family="Times,serif" font-size="14.00">FAddComponent</text>
</g>
<!-- FormationModule -->
<g id="node29" class="node">
<title>FormationModule</title>
<polygon fill="#8dd3c7" stroke="black" points="3817.88,-149.8 3814.88,-153.8 3793.88,-153.8 3790.88,-149.8 3700.12,-149.8 3700.12,-113.8 3817.88,-113.8 3817.88,-149.8"/>
<text text-anchor="middle" x="3759" y="-127.6" font-family="Times,serif" font-size="14.00">FormationModule</text>
</g>
<!-- FAddComponent&#45;&gt;FormationModule -->
<g id="edge22" class="edge">
<title>FAddComponent&#45;&gt;FormationModule</title>
<path fill="none" stroke="black" d="M4033,-85.07C4033,-103.36 4033,-128.8 4033,-128.8 4033,-128.8 3828.12,-128.8 3828.12,-128.8"/>
<polygon fill="black" stroke="black" points="3828.12,-125.3 3818.12,-128.8 3828.12,-132.3 3828.12,-125.3"/>
</g>
<!-- FDeleteComponent -->
<g id="node26" class="node">
<title>FDeleteComponent</title>
<polygon fill="#ffffb3" stroke="black" points="3958.65,-84.8 3833.35,-84.8 3833.35,-48.8 3958.65,-48.8 3958.65,-84.8"/>
<text text-anchor="middle" x="3896" y="-62.6" font-family="Times,serif" font-size="14.00">FDeleteComponent</text>
</g>
<!-- FDeleteComponent&#45;&gt;FormationModule -->
<g id="edge23" class="edge">
<title>FDeleteComponent&#45;&gt;FormationModule</title>
<path fill="none" stroke="black" d="M3896,-84.81C3896,-100.85 3896,-121.8 3896,-121.8 3896,-121.8 3827.9,-121.8 3827.9,-121.8"/>
<polygon fill="black" stroke="black" points="3827.9,-118.3 3817.9,-121.8 3827.9,-125.3 3827.9,-118.3"/>
</g>
<!-- FEditComponent -->
<g id="node27" class="node">
<title>FEditComponent</title>
<polygon fill="#ffffb3" stroke="black" points="3815.45,-84.8 3702.55,-84.8 3702.55,-48.8 3815.45,-48.8 3815.45,-84.8"/>
<text text-anchor="middle" x="3759" y="-62.6" font-family="Times,serif" font-size="14.00">FEditComponent</text>
</g>
<!-- FEditComponent&#45;&gt;FormationModule -->
<g id="edge24" class="edge">
<title>FEditComponent&#45;&gt;FormationModule</title>
<path fill="none" stroke="black" d="M3759,-84.91C3759,-84.91 3759,-103.79 3759,-103.79"/>
<polygon fill="black" stroke="black" points="3755.5,-103.79 3759,-113.79 3762.5,-103.79 3755.5,-103.79"/>
</g>
<!-- FIndexComponent -->
<g id="node28" class="node">
<title>FIndexComponent</title>
<polygon fill="#ffffb3" stroke="black" points="3684.49,-84.8 3563.51,-84.8 3563.51,-48.8 3684.49,-48.8 3684.49,-84.8"/>
<text text-anchor="middle" x="3624" y="-62.6" font-family="Times,serif" font-size="14.00">FIndexComponent</text>
</g>
<!-- FIndexComponent&#45;&gt;FormationModule -->
<g id="edge25" class="edge">
<title>FIndexComponent&#45;&gt;FormationModule</title>
<path fill="none" stroke="black" d="M3624,-84.91C3624,-104.14 3624,-131.8 3624,-131.8 3624,-131.8 3689.79,-131.8 3689.79,-131.8"/>
<polygon fill="black" stroke="black" points="3689.79,-135.3 3699.79,-131.8 3689.79,-128.3 3689.79,-135.3"/>
</g>
<!-- FormationRoutingModule -->
<g id="node30" class="node">
<title>FormationRoutingModule</title>
<polygon fill="#8dd3c7" stroke="black" points="3539.5,-84.8 3536.5,-88.8 3515.5,-88.8 3512.5,-84.8 3376.5,-84.8 3376.5,-48.8 3539.5,-48.8 3539.5,-84.8"/>
<text text-anchor="middle" x="3458" y="-62.6" font-family="Times,serif" font-size="14.00">FormationRoutingModule</text>
</g>
<!-- FormationRoutingModule&#45;&gt;FormationModule -->
<g id="edge26" class="edge">
<title>FormationRoutingModule&#45;&gt;FormationModule</title>
<path fill="none" stroke="black" d="M3458,-85.09C3458,-107.01 3458,-140.8 3458,-140.8 3458,-140.8 3689.89,-140.8 3689.89,-140.8"/>
<polygon fill="black" stroke="black" points="3689.89,-144.3 3699.89,-140.8 3689.89,-137.3 3689.89,-144.3"/>
</g>
<!-- UAddComponent -->
<g id="node31" class="node">
<title>UAddComponent</title>
<polygon fill="#ffffb3" stroke="black" points="4821.55,-84.8 4706.45,-84.8 4706.45,-48.8 4821.55,-48.8 4821.55,-84.8"/>
<text text-anchor="middle" x="4764" y="-62.6" font-family="Times,serif" font-size="14.00">UAddComponent</text>
</g>
<!-- UserModule -->
<g id="node35" class="node">
<title>UserModule</title>
<polygon fill="#8dd3c7" stroke="black" points="4527.99,-149.8 4524.99,-153.8 4503.99,-153.8 4500.99,-149.8 4442.01,-149.8 4442.01,-113.8 4527.99,-113.8 4527.99,-149.8"/>
<text text-anchor="middle" x="4485" y="-127.6" font-family="Times,serif" font-size="14.00">UserModule</text>
</g>
<!-- UAddComponent&#45;&gt;UserModule -->
<g id="edge27" class="edge">
<title>UAddComponent&#45;&gt;UserModule</title>
<path fill="none" stroke="black" d="M4764,-85.08C4764,-106.12 4764,-137.8 4764,-137.8 4764,-137.8 4538.29,-137.8 4538.29,-137.8"/>
<polygon fill="black" stroke="black" points="4538.29,-134.3 4528.29,-137.8 4538.29,-141.3 4538.29,-134.3"/>
</g>
<!-- UDeleteComponent -->
<g id="node32" class="node">
<title>UDeleteComponent</title>
<polygon fill="#ffffb3" stroke="black" points="4687.97,-84.8 4560.03,-84.8 4560.03,-48.8 4687.97,-48.8 4687.97,-84.8"/>
<text text-anchor="middle" x="4624" y="-62.6" font-family="Times,serif" font-size="14.00">UDeleteComponent</text>
</g>
<!-- UDeleteComponent&#45;&gt;UserModule -->
<g id="edge28" class="edge">
<title>UDeleteComponent&#45;&gt;UserModule</title>
<path fill="none" stroke="black" d="M4624,-84.82C4624,-102.17 4624,-125.8 4624,-125.8 4624,-125.8 4538.22,-125.8 4538.22,-125.8"/>
<polygon fill="black" stroke="black" points="4538.22,-122.3 4528.22,-125.8 4538.22,-129.3 4538.22,-122.3"/>
</g>
<!-- UEditComponent -->
<g id="node33" class="node">
<title>UEditComponent</title>
<polygon fill="#ffffb3" stroke="black" points="4542.27,-84.8 4427.73,-84.8 4427.73,-48.8 4542.27,-48.8 4542.27,-84.8"/>
<text text-anchor="middle" x="4485" y="-62.6" font-family="Times,serif" font-size="14.00">UEditComponent</text>
</g>
<!-- UEditComponent&#45;&gt;UserModule -->
<g id="edge29" class="edge">
<title>UEditComponent&#45;&gt;UserModule</title>
<path fill="none" stroke="black" d="M4485,-84.91C4485,-84.91 4485,-103.79 4485,-103.79"/>
<polygon fill="black" stroke="black" points="4481.5,-103.79 4485,-113.79 4488.5,-103.79 4481.5,-103.79"/>
</g>
<!-- UIndexComponent -->
<g id="node34" class="node">
<title>UIndexComponent</title>
<polygon fill="#ffffb3" stroke="black" points="4409.82,-84.8 4286.18,-84.8 4286.18,-48.8 4409.82,-48.8 4409.82,-84.8"/>
<text text-anchor="middle" x="4348" y="-62.6" font-family="Times,serif" font-size="14.00">UIndexComponent</text>
</g>
<!-- UIndexComponent&#45;&gt;UserModule -->
<g id="edge30" class="edge">
<title>UIndexComponent&#45;&gt;UserModule</title>
<path fill="none" stroke="black" d="M4348,-84.93C4348,-105.37 4348,-135.8 4348,-135.8 4348,-135.8 4431.65,-135.8 4431.65,-135.8"/>
<polygon fill="black" stroke="black" points="4431.65,-139.3 4441.65,-135.8 4431.65,-132.3 4431.65,-139.3"/>
</g>
<!-- UserRoutingModule -->
<g id="node36" class="node">
<title>UserRoutingModule</title>
<polygon fill="#8dd3c7" stroke="black" points="4261.6,-84.8 4258.6,-88.8 4237.6,-88.8 4234.6,-84.8 4130.4,-84.8 4130.4,-48.8 4261.6,-48.8 4261.6,-84.8"/>
<text text-anchor="middle" x="4196" y="-62.6" font-family="Times,serif" font-size="14.00">UserRoutingModule</text>
</g>
<!-- UserRoutingModule&#45;&gt;UserModule -->
<g id="edge31" class="edge">
<title>UserRoutingModule&#45;&gt;UserModule</title>
<path fill="none" stroke="black" d="M4196,-84.81C4196,-107.29 4196,-142.8 4196,-142.8 4196,-142.8 4431.73,-142.8 4431.73,-142.8"/>
<polygon fill="black" stroke="black" points="4431.73,-146.3 4441.73,-142.8 4431.73,-139.3 4431.73,-146.3"/>
</g>
</g>
</svg>
