<?xml version="1.0" encoding="UTF-8" standalone="no"?>
<!DOCTYPE svg PUBLIC "-//W3C//DTD SVG 1.1//EN"
 "http://www.w3.org/Graphics/SVG/1.1/DTD/svg11.dtd">
<!-- Generated by graphviz version 5.0.0 (20220707.1540)
 -->
<!-- Title: dependencies Pages: 1 -->
<svg width="770pt" height="174pt"
 viewBox="0.00 0.00 770.00 173.80" xmlns="http://www.w3.org/2000/svg" xmlns:xlink="http://www.w3.org/1999/xlink">
<g id="graph0" class="graph" transform="scale(1 1) rotate(0) translate(4 169.8)">
<title>dependencies</title>
<polygon fill="white" stroke="transparent" points="-4,4 -4,-169.8 766,-169.8 766,4 -4,4"/>
<text text-anchor="middle" x="381" y="-8.2" font-family="sans-serif" font-size="14.00">dependencies</text>
<g id="clust1" class="cluster">
<title>cluster_FormationModule</title>
<polygon fill="none" stroke="black" stroke-dasharray="1,5" points="8,-32.8 8,-157.8 754,-157.8 754,-32.8 8,-32.8"/>
</g>
<g id="clust7" class="cluster">
<title>cluster_FormationModule_imports</title>
<polygon fill="none" stroke="black" points="566,-40.8 566,-92.8 746,-92.8 746,-40.8 566,-40.8"/>
</g>
<g id="clust2" class="cluster">
<title>cluster_FormationModule_declarations</title>
<polygon fill="none" stroke="black" points="16,-40.8 16,-92.8 558,-92.8 558,-40.8 16,-40.8"/>
</g>
<!-- FAddComponent -->
<g id="node1" class="node">
<title>FAddComponent</title>
<polygon fill="#ffffb3" stroke="black" points="549.73,-84.8 436.27,-84.8 436.27,-48.8 549.73,-48.8 549.73,-84.8"/>
<text text-anchor="middle" x="493" y="-62.6" font-family="Times,serif" font-size="14.00">FAddComponent</text>
</g>
<!-- FormationModule -->
<g id="node5" class="node">
<title>FormationModule</title>
<polygon fill="#8dd3c7" stroke="black" points="414.88,-149.8 411.88,-153.8 390.88,-153.8 387.88,-149.8 297.12,-149.8 297.12,-113.8 414.88,-113.8 414.88,-149.8"/>
<text text-anchor="middle" x="356" y="-127.6" font-family="Times,serif" font-size="14.00">FormationModule</text>
</g>
<!-- FAddComponent&#45;&gt;FormationModule -->
<g id="edge1" class="edge">
<title>FAddComponent&#45;&gt;FormationModule</title>
<path fill="none" stroke="black" d="M493,-84.82C493,-102.17 493,-125.8 493,-125.8 493,-125.8 424.9,-125.8 424.9,-125.8"/>
<polygon fill="black" stroke="black" points="424.9,-122.3 414.9,-125.8 424.9,-129.3 424.9,-122.3"/>
</g>
<!-- FDeleteComponent -->
<g id="node2" class="node">
<title>FDeleteComponent</title>
<polygon fill="#ffffb3" stroke="black" points="418.65,-84.8 293.35,-84.8 293.35,-48.8 418.65,-48.8 418.65,-84.8"/>
<text text-anchor="middle" x="356" y="-62.6" font-family="Times,serif" font-size="14.00">FDeleteComponent</text>
</g>
<!-- FDeleteComponent&#45;&gt;FormationModule -->
<g id="edge2" class="edge">
<title>FDeleteComponent&#45;&gt;FormationModule</title>
<path fill="none" stroke="black" d="M356,-84.91C356,-84.91 356,-103.79 356,-103.79"/>
<polygon fill="black" stroke="black" points="352.5,-103.79 356,-113.79 359.5,-103.79 352.5,-103.79"/>
</g>
<!-- FEditComponent -->
<g id="node3" class="node">
<title>FEditComponent</title>
<polygon fill="#ffffb3" stroke="black" points="275.45,-84.8 162.55,-84.8 162.55,-48.8 275.45,-48.8 275.45,-84.8"/>
<text text-anchor="middle" x="219" y="-62.6" font-family="Times,serif" font-size="14.00">FEditComponent</text>
</g>
<!-- FEditComponent&#45;&gt;FormationModule -->
<g id="edge3" class="edge">
<title>FEditComponent&#45;&gt;FormationModule</title>
<path fill="none" stroke="black" d="M219,-84.82C219,-102.17 219,-125.8 219,-125.8 219,-125.8 287.1,-125.8 287.1,-125.8"/>
<polygon fill="black" stroke="black" points="287.1,-129.3 297.1,-125.8 287.1,-122.3 287.1,-129.3"/>
</g>
<!-- FIndexComponent -->
<g id="node4" class="node">
<title>FIndexComponent</title>
<polygon fill="#ffffb3" stroke="black" points="144.49,-84.8 23.51,-84.8 23.51,-48.8 144.49,-48.8 144.49,-84.8"/>
<text text-anchor="middle" x="84" y="-62.6" font-family="Times,serif" font-size="14.00">FIndexComponent</text>
</g>
<!-- FIndexComponent&#45;&gt;FormationModule -->
<g id="edge4" class="edge">
<title>FIndexComponent&#45;&gt;FormationModule</title>
<path fill="none" stroke="black" d="M84,-85.08C84,-106.12 84,-137.8 84,-137.8 84,-137.8 286.98,-137.8 286.98,-137.8"/>
<polygon fill="black" stroke="black" points="286.98,-141.3 296.98,-137.8 286.98,-134.3 286.98,-141.3"/>
</g>
<!-- FormationRoutingModule -->
<g id="node6" class="node">
<title>FormationRoutingModule</title>
<polygon fill="#8dd3c7" stroke="black" points="737.5,-84.8 734.5,-88.8 713.5,-88.8 710.5,-84.8 574.5,-84.8 574.5,-48.8 737.5,-48.8 737.5,-84.8"/>
<text text-anchor="middle" x="656" y="-62.6" font-family="Times,serif" font-size="14.00">FormationRoutingModule</text>
</g>
<!-- FormationRoutingModule&#45;&gt;FormationModule -->
<g id="edge5" class="edge">
<title>FormationRoutingModule&#45;&gt;FormationModule</title>
<path fill="none" stroke="black" d="M656,-85.08C656,-106.12 656,-137.8 656,-137.8 656,-137.8 424.91,-137.8 424.91,-137.8"/>
<polygon fill="black" stroke="black" points="424.91,-134.3 414.91,-137.8 424.91,-141.3 424.91,-134.3"/>
</g>
</g>
</svg>
