<?xml version="1.0" encoding="UTF-8" standalone="no"?>
<!DOCTYPE svg PUBLIC "-//W3C//DTD SVG 1.1//EN"
 "http://www.w3.org/Graphics/SVG/1.1/DTD/svg11.dtd">
<!-- Generated by graphviz version 5.0.0 (20220707.1540)
 -->
<!-- Title: dependencies Pages: 1 -->
<svg width="2121pt" height="247pt"
 viewBox="0.00 0.00 2121.00 246.80" xmlns="http://www.w3.org/2000/svg" xmlns:xlink="http://www.w3.org/1999/xlink">
<g id="graph0" class="graph" transform="scale(1 1) rotate(0) translate(4 242.8)">
<title>dependencies</title>
<polygon fill="white" stroke="transparent" points="-4,4 -4,-242.8 2117,-242.8 2117,4 -4,4"/>
<text text-anchor="middle" x="1056.5" y="-8.2" font-family="sans-serif" font-size="14.00">dependencies</text>
<g id="clust1" class="cluster">
<title>cluster_AppModule</title>
<polygon fill="none" stroke="black" stroke-dasharray="1,5" points="8,-32.8 8,-230.8 2105,-230.8 2105,-32.8 8,-32.8"/>
</g>
<g id="clust16" class="cluster">
<title>cluster_AppModule_bootstrap</title>
<polygon fill="none" stroke="black" points="1079,-170.8 1079,-222.8 1203,-222.8 1203,-170.8 1079,-170.8"/>
</g>
<g id="clust2" class="cluster">
<title>cluster_AppModule_declarations</title>
<polygon fill="none" stroke="black" points="168,-40.8 168,-92.8 2097,-92.8 2097,-40.8 168,-40.8"/>
</g>
<g id="clust14" class="cluster">
<title>cluster_AppModule_imports</title>
<polygon fill="none" stroke="black" points="16,-40.8 16,-92.8 160,-92.8 160,-40.8 16,-40.8"/>
</g>
<!-- AppComponent -->
<g id="node1" class="node">
<title>AppComponent</title>
<polygon fill="#ffffb3" stroke="black" points="2088.94,-84.8 1983.06,-84.8 1983.06,-48.8 2088.94,-48.8 2088.94,-84.8"/>
<text text-anchor="middle" x="2036" y="-62.6" font-family="Times,serif" font-size="14.00">AppComponent</text>
</g>
<!-- AppModule -->
<g id="node12" class="node">
<title>AppModule</title>
<polygon fill="#8dd3c7" stroke="black" points="1182.66,-149.8 1179.66,-153.8 1158.66,-153.8 1155.66,-149.8 1099.34,-149.8 1099.34,-113.8 1182.66,-113.8 1182.66,-149.8"/>
<text text-anchor="middle" x="1141" y="-127.6" font-family="Times,serif" font-size="14.00">AppModule</text>
</g>
<!-- AppComponent&#45;&gt;AppModule -->
<g id="edge1" class="edge">
<title>AppComponent&#45;&gt;AppModule</title>
<path fill="none" stroke="black" d="M2036,-85.05C2036,-107.82 2036,-143.8 2036,-143.8 2036,-143.8 1192.67,-143.8 1192.67,-143.8"/>
<polygon fill="black" stroke="black" points="1192.67,-140.3 1182.67,-143.8 1192.67,-147.3 1192.67,-140.3"/>
</g>
<!-- AproposComponent -->
<g id="node2" class="node">
<title>AproposComponent</title>
<polygon fill="#ffffb3" stroke="black" points="1965.55,-84.8 1836.45,-84.8 1836.45,-48.8 1965.55,-48.8 1965.55,-84.8"/>
<text text-anchor="middle" x="1901" y="-62.6" font-family="Times,serif" font-size="14.00">AproposComponent</text>
</g>
<!-- AproposComponent&#45;&gt;AppModule -->
<g id="edge2" class="edge">
<title>AproposComponent&#45;&gt;AppModule</title>
<path fill="none" stroke="black" d="M1901,-85.08C1901,-106.12 1901,-137.8 1901,-137.8 1901,-137.8 1192.67,-137.8 1192.67,-137.8"/>
<polygon fill="black" stroke="black" points="1192.67,-134.3 1182.67,-137.8 1192.67,-141.3 1192.67,-134.3"/>
</g>
<!-- CertificationsComponent -->
<g id="node3" class="node">
<title>CertificationsComponent</title>
<polygon fill="#ffffb3" stroke="black" points="1817.53,-84.8 1660.47,-84.8 1660.47,-48.8 1817.53,-48.8 1817.53,-84.8"/>
<text text-anchor="middle" x="1739" y="-62.6" font-family="Times,serif" font-size="14.00">CertificationsComponent</text>
</g>
<!-- CertificationsComponent&#45;&gt;AppModule -->
<g id="edge3" class="edge">
<title>CertificationsComponent&#45;&gt;AppModule</title>
<path fill="none" stroke="black" d="M1739,-84.91C1739,-104.14 1739,-131.8 1739,-131.8 1739,-131.8 1193.05,-131.8 1193.05,-131.8"/>
<polygon fill="black" stroke="black" points="1193.05,-128.3 1183.05,-131.8 1193.05,-135.3 1193.05,-128.3"/>
</g>
<!-- ContactPublicComponent -->
<g id="node4" class="node">
<title>ContactPublicComponent</title>
<polygon fill="#ffffb3" stroke="black" points="1642.16,-84.8 1481.84,-84.8 1481.84,-48.8 1642.16,-48.8 1642.16,-84.8"/>
<text text-anchor="middle" x="1562" y="-62.6" font-family="Times,serif" font-size="14.00">ContactPublicComponent</text>
</g>
<!-- ContactPublicComponent&#45;&gt;AppModule -->
<g id="edge4" class="edge">
<title>ContactPublicComponent&#45;&gt;AppModule</title>
<path fill="none" stroke="black" d="M1562,-84.82C1562,-102.17 1562,-125.8 1562,-125.8 1562,-125.8 1192.91,-125.8 1192.91,-125.8"/>
<polygon fill="black" stroke="black" points="1192.91,-122.3 1182.91,-125.8 1192.91,-129.3 1192.91,-122.3"/>
</g>
<!-- CreateStagiaireComponent -->
<g id="node5" class="node">
<title>CreateStagiaireComponent</title>
<polygon fill="#ffffb3" stroke="black" points="1463.62,-84.8 1296.38,-84.8 1296.38,-48.8 1463.62,-48.8 1463.62,-84.8"/>
<text text-anchor="middle" x="1380" y="-62.6" font-family="Times,serif" font-size="14.00">CreateStagiaireComponent</text>
</g>
<!-- CreateStagiaireComponent&#45;&gt;AppModule -->
<g id="edge5" class="edge">
<title>CreateStagiaireComponent&#45;&gt;AppModule</title>
<path fill="none" stroke="black" d="M1380,-85.04C1380,-100.37 1380,-119.8 1380,-119.8 1380,-119.8 1192.9,-119.8 1192.9,-119.8"/>
<polygon fill="black" stroke="black" points="1192.9,-116.3 1182.9,-119.8 1192.9,-123.3 1192.9,-116.3"/>
</g>
<!-- ErrorComponent -->
<g id="node6" class="node">
<title>ErrorComponent</title>
<polygon fill="#ffffb3" stroke="black" points="1278.37,-84.8 1167.63,-84.8 1167.63,-48.8 1278.37,-48.8 1278.37,-84.8"/>
<text text-anchor="middle" x="1223" y="-62.6" font-family="Times,serif" font-size="14.00">ErrorComponent</text>
</g>
<!-- ErrorComponent&#45;&gt;AppModule -->
<g id="edge6" class="edge">
<title>ErrorComponent&#45;&gt;AppModule</title>
<path fill="none" stroke="black" d="M1175.2,-84.91C1175.2,-84.91 1175.2,-103.79 1175.2,-103.79"/>
<polygon fill="black" stroke="black" points="1171.7,-103.79 1175.2,-113.79 1178.7,-103.79 1171.7,-103.79"/>
</g>
<!-- FormationDetailsComponent -->
<g id="node7" class="node">
<title>FormationDetailsComponent</title>
<polygon fill="#ffffb3" stroke="black" points="1149.82,-84.8 970.18,-84.8 970.18,-48.8 1149.82,-48.8 1149.82,-84.8"/>
<text text-anchor="middle" x="1060" y="-62.6" font-family="Times,serif" font-size="14.00">FormationDetailsComponent</text>
</g>
<!-- FormationDetailsComponent&#45;&gt;AppModule -->
<g id="edge7" class="edge">
<title>FormationDetailsComponent&#45;&gt;AppModule</title>
<path fill="none" stroke="black" d="M1124.41,-84.91C1124.41,-84.91 1124.41,-103.79 1124.41,-103.79"/>
<polygon fill="black" stroke="black" points="1120.91,-103.79 1124.41,-113.79 1127.91,-103.79 1120.91,-103.79"/>
</g>
<!-- FormationListComponent -->
<g id="node8" class="node">
<title>FormationListComponent</title>
<polygon fill="#ffffb3" stroke="black" points="952.94,-84.8 791.06,-84.8 791.06,-48.8 952.94,-48.8 952.94,-84.8"/>
<text text-anchor="middle" x="872" y="-62.6" font-family="Times,serif" font-size="14.00">FormationListComponent</text>
</g>
<!-- FormationListComponent&#45;&gt;AppModule -->
<g id="edge8" class="edge">
<title>FormationListComponent&#45;&gt;AppModule</title>
<path fill="none" stroke="black" d="M872,-85.04C872,-100.37 872,-119.8 872,-119.8 872,-119.8 1089.26,-119.8 1089.26,-119.8"/>
<polygon fill="black" stroke="black" points="1089.26,-123.3 1099.26,-119.8 1089.26,-116.3 1089.26,-123.3"/>
</g>
<!-- FormationsComponent -->
<g id="node9" class="node">
<title>FormationsComponent</title>
<polygon fill="#ffffb3" stroke="black" points="773.61,-84.8 628.39,-84.8 628.39,-48.8 773.61,-48.8 773.61,-84.8"/>
<text text-anchor="middle" x="701" y="-62.6" font-family="Times,serif" font-size="14.00">FormationsComponent</text>
</g>
<!-- FormationsComponent&#45;&gt;AppModule -->
<g id="edge9" class="edge">
<title>FormationsComponent&#45;&gt;AppModule</title>
<path fill="none" stroke="black" d="M701,-84.82C701,-102.17 701,-125.8 701,-125.8 701,-125.8 1089.21,-125.8 1089.21,-125.8"/>
<polygon fill="black" stroke="black" points="1089.21,-129.3 1099.21,-125.8 1089.21,-122.3 1089.21,-129.3"/>
</g>
<!-- InfosPratiquesComponent -->
<g id="node10" class="node">
<title>InfosPratiquesComponent</title>
<polygon fill="#ffffb3" stroke="black" points="610.21,-84.8 447.79,-84.8 447.79,-48.8 610.21,-48.8 610.21,-84.8"/>
<text text-anchor="middle" x="529" y="-62.6" font-family="Times,serif" font-size="14.00">InfosPratiquesComponent</text>
</g>
<!-- InfosPratiquesComponent&#45;&gt;AppModule -->
<g id="edge10" class="edge">
<title>InfosPratiquesComponent&#45;&gt;AppModule</title>
<path fill="none" stroke="black" d="M529,-84.91C529,-104.14 529,-131.8 529,-131.8 529,-131.8 1088.93,-131.8 1088.93,-131.8"/>
<polygon fill="black" stroke="black" points="1088.93,-135.3 1098.93,-131.8 1088.93,-128.3 1088.93,-135.3"/>
</g>
<!-- InfrastructuresEtCybersecuriteComponent -->
<g id="node11" class="node">
<title>InfrastructuresEtCybersecuriteComponent</title>
<polygon fill="#ffffb3" stroke="black" points="429.65,-84.8 176.35,-84.8 176.35,-48.8 429.65,-48.8 429.65,-84.8"/>
<text text-anchor="middle" x="303" y="-62.6" font-family="Times,serif" font-size="14.00">InfrastructuresEtCybersecuriteComponent</text>
</g>
<!-- InfrastructuresEtCybersecuriteComponent&#45;&gt;AppModule -->
<g id="edge11" class="edge">
<title>InfrastructuresEtCybersecuriteComponent&#45;&gt;AppModule</title>
<path fill="none" stroke="black" d="M303,-85.08C303,-106.12 303,-137.8 303,-137.8 303,-137.8 1089.16,-137.8 1089.16,-137.8"/>
<polygon fill="black" stroke="black" points="1089.16,-141.3 1099.16,-137.8 1089.16,-134.3 1089.16,-141.3"/>
</g>
<!-- AppComponent  -->
<g id="node14" class="node">
<title>AppComponent </title>
<polygon fill="#80b1d3" stroke="black" points="1195.44,-214.8 1086.56,-214.8 1086.56,-178.8 1195.44,-178.8 1195.44,-214.8"/>
<text text-anchor="middle" x="1141" y="-192.6" font-family="Times,serif" font-size="14.00">AppComponent </text>
</g>
<!-- AppModule&#45;&gt;AppComponent  -->
<g id="edge13" class="edge">
<title>AppModule&#45;&gt;AppComponent </title>
<path fill="none" stroke="black" stroke-dasharray="1,5" d="M1141,-149.91C1141,-149.91 1141,-168.79 1141,-168.79"/>
<polygon fill="black" stroke="black" points="1137.5,-168.79 1141,-178.79 1144.5,-168.79 1137.5,-168.79"/>
</g>
<!-- AppRoutingModule -->
<g id="node13" class="node">
<title>AppRoutingModule</title>
<polygon fill="#8dd3c7" stroke="black" points="152.28,-84.8 149.28,-88.8 128.28,-88.8 125.28,-84.8 23.72,-84.8 23.72,-48.8 152.28,-48.8 152.28,-84.8"/>
<text text-anchor="middle" x="88" y="-62.6" font-family="Times,serif" font-size="14.00">AppRoutingModule</text>
</g>
<!-- AppRoutingModule&#45;&gt;AppModule -->
<g id="edge12" class="edge">
<title>AppRoutingModule&#45;&gt;AppModule</title>
<path fill="none" stroke="black" d="M88,-85.05C88,-107.82 88,-143.8 88,-143.8 88,-143.8 1089.07,-143.8 1089.07,-143.8"/>
<polygon fill="black" stroke="black" points="1089.07,-147.3 1099.07,-143.8 1089.07,-140.3 1089.07,-147.3"/>
</g>
</g>
</svg>
