<?xml version="1.0" encoding="UTF-8" standalone="no"?>
<!DOCTYPE svg PUBLIC "-//W3C//DTD SVG 1.1//EN"
 "http://www.w3.org/Graphics/SVG/1.1/DTD/svg11.dtd">
<!-- Generated by graphviz version 5.0.0 (20220707.1540)
 -->
<!-- Title: dependencies Pages: 1 -->
<svg width="813pt" height="174pt"
 viewBox="0.00 0.00 813.00 173.80" xmlns="http://www.w3.org/2000/svg" xmlns:xlink="http://www.w3.org/1999/xlink">
<g id="graph0" class="graph" transform="scale(1 1) rotate(0) translate(4 169.8)">
<title>dependencies</title>
<polygon fill="white" stroke="transparent" points="-4,4 -4,-169.8 809,-169.8 809,4 -4,4"/>
<text text-anchor="middle" x="402.5" y="-8.2" font-family="sans-serif" font-size="14.00">dependencies</text>
<g id="clust1" class="cluster">
<title>cluster_AdminModule</title>
<polygon fill="none" stroke="black" stroke-dasharray="1,5" points="8,-32.8 8,-157.8 797,-157.8 797,-32.8 8,-32.8"/>
</g>
<g id="clust2" class="cluster">
<title>cluster_AdminModule_declarations</title>
<polygon fill="none" stroke="black" points="184,-40.8 184,-92.8 789,-92.8 789,-40.8 184,-40.8"/>
</g>
<g id="clust7" class="cluster">
<title>cluster_AdminModule_imports</title>
<polygon fill="none" stroke="black" points="16,-40.8 16,-92.8 176,-92.8 176,-40.8 16,-40.8"/>
</g>
<!-- AheaderComponent -->
<g id="node1" class="node">
<title>AheaderComponent</title>
<polygon fill="#ffffb3" stroke="black" points="781.25,-84.8 652.75,-84.8 652.75,-48.8 781.25,-48.8 781.25,-84.8"/>
<text text-anchor="middle" x="717" y="-62.6" font-family="Times,serif" font-size="14.00">AheaderComponent</text>
</g>
<!-- AdminModule -->
<g id="node5" class="node">
<title>AdminModule</title>
<polygon fill="#8dd3c7" stroke="black" points="468.44,-149.8 465.44,-153.8 444.44,-153.8 441.44,-149.8 369.56,-149.8 369.56,-113.8 468.44,-113.8 468.44,-149.8"/>
<text text-anchor="middle" x="419" y="-127.6" font-family="Times,serif" font-size="14.00">AdminModule</text>
</g>
<!-- AheaderComponent&#45;&gt;AdminModule -->
<g id="edge1" class="edge">
<title>AheaderComponent&#45;&gt;AdminModule</title>
<path fill="none" stroke="black" d="M717,-85.08C717,-106.12 717,-137.8 717,-137.8 717,-137.8 478.54,-137.8 478.54,-137.8"/>
<polygon fill="black" stroke="black" points="478.54,-134.3 468.54,-137.8 478.54,-141.3 478.54,-134.3"/>
</g>
<!-- AlayoutComponent -->
<g id="node2" class="node">
<title>AlayoutComponent</title>
<polygon fill="#ffffb3" stroke="black" points="634.44,-84.8 507.56,-84.8 507.56,-48.8 634.44,-48.8 634.44,-84.8"/>
<text text-anchor="middle" x="571" y="-62.6" font-family="Times,serif" font-size="14.00">AlayoutComponent</text>
</g>
<!-- AlayoutComponent&#45;&gt;AdminModule -->
<g id="edge2" class="edge">
<title>AlayoutComponent&#45;&gt;AdminModule</title>
<path fill="none" stroke="black" d="M571,-84.82C571,-102.17 571,-125.8 571,-125.8 571,-125.8 478.35,-125.8 478.35,-125.8"/>
<polygon fill="black" stroke="black" points="478.35,-122.3 468.35,-125.8 478.35,-129.3 478.35,-122.3"/>
</g>
<!-- DashboardComponent -->
<g id="node3" class="node">
<title>DashboardComponent</title>
<polygon fill="#ffffb3" stroke="black" points="489.98,-84.8 348.02,-84.8 348.02,-48.8 489.98,-48.8 489.98,-84.8"/>
<text text-anchor="middle" x="419" y="-62.6" font-family="Times,serif" font-size="14.00">DashboardComponent</text>
</g>
<!-- DashboardComponent&#45;&gt;AdminModule -->
<g id="edge3" class="edge">
<title>DashboardComponent&#45;&gt;AdminModule</title>
<path fill="none" stroke="black" d="M419,-84.91C419,-84.91 419,-103.79 419,-103.79"/>
<polygon fill="black" stroke="black" points="415.5,-103.79 419,-113.79 422.5,-103.79 415.5,-103.79"/>
</g>
<!-- SidemenuComponent -->
<g id="node4" class="node">
<title>SidemenuComponent</title>
<polygon fill="#ffffb3" stroke="black" points="329.82,-84.8 192.18,-84.8 192.18,-48.8 329.82,-48.8 329.82,-84.8"/>
<text text-anchor="middle" x="261" y="-62.6" font-family="Times,serif" font-size="14.00">SidemenuComponent</text>
</g>
<!-- SidemenuComponent&#45;&gt;AdminModule -->
<g id="edge4" class="edge">
<title>SidemenuComponent&#45;&gt;AdminModule</title>
<path fill="none" stroke="black" d="M261,-84.82C261,-102.17 261,-125.8 261,-125.8 261,-125.8 359.44,-125.8 359.44,-125.8"/>
<polygon fill="black" stroke="black" points="359.44,-129.3 369.44,-125.8 359.44,-122.3 359.44,-129.3"/>
</g>
<!-- AdminRoutingModule -->
<g id="node6" class="node">
<title>AdminRoutingModule</title>
<polygon fill="#8dd3c7" stroke="black" points="167.56,-84.8 164.56,-88.8 143.56,-88.8 140.56,-84.8 24.44,-84.8 24.44,-48.8 167.56,-48.8 167.56,-84.8"/>
<text text-anchor="middle" x="96" y="-62.6" font-family="Times,serif" font-size="14.00">AdminRoutingModule</text>
</g>
<!-- AdminRoutingModule&#45;&gt;AdminModule -->
<g id="edge5" class="edge">
<title>AdminRoutingModule&#45;&gt;AdminModule</title>
<path fill="none" stroke="black" d="M96,-85.08C96,-106.12 96,-137.8 96,-137.8 96,-137.8 359.59,-137.8 359.59,-137.8"/>
<polygon fill="black" stroke="black" points="359.59,-141.3 369.59,-137.8 359.59,-134.3 359.59,-141.3"/>
</g>
</g>
</svg>
